<svg xmlns="http://www.w3.org/2000/svg" viewBox="0 0 489.43 139.66"><defs><style>.cls-1{fill:#216ca5;}</style></defs><title>TrustedCI_logo_blue_web</title><g id="Layer_2" data-name="Layer 2"><g id="Layer_1-2" data-name="Layer 1"><path class="cls-1" d="M138.36,19h32v5.15H157.14v35.8h-5.62V24.14H138.36Z"/><path class="cls-1" d="M203.24,59.94l-8.13-12.87q-1.4.12-2.28.12H182.41V59.94H176.8V19h16q7.78,0,12,3.6t4.24,10.21a14.51,14.51,0,0,1-2.31,8.37,12.93,12.93,0,0,1-6.64,4.91l9.54,13.87ZM192.83,42.1q5.27,0,8.07-2.31T203.71,33a8,8,0,0,0-2.81-6.64q-2.81-2.25-8.07-2.25H182.41v18Z"/><path class="cls-1" d="M227,52.07q3.13,3.19,8.63,3.19t8.54-3.19q3.1-3.19,3.1-8.86V19h5.62V43.21q0,8-4.59,12.58t-12.67,4.56q-8.13,0-12.75-4.56t-4.62-12.58V19h5.62V43.21Q223.83,48.88,227,52.07Z"/><path class="cls-1" d="M281.66,24.81A20.05,20.05,0,0,0,276,23.9a10.42,10.42,0,0,0-5.7,1.37,4.27,4.27,0,0,0-2.14,3.77,5,5,0,0,0,1.29,3.54,9.1,9.1,0,0,0,3.16,2.16q1.87.79,5.21,1.84a59.1,59.1,0,0,1,6.73,2.46,11.66,11.66,0,0,1,4.39,3.48,9.63,9.63,0,0,1,1.81,6.11,10.22,10.22,0,0,1-1.9,6.14,12.18,12.18,0,0,1-5.32,4.07,20.23,20.23,0,0,1-7.87,1.43,22.88,22.88,0,0,1-8.78-1.76,23.76,23.76,0,0,1-7.37-4.68L262,49a21.09,21.09,0,0,0,6.58,4.42A18.14,18.14,0,0,0,275.73,55a11.36,11.36,0,0,0,6.46-1.61A5,5,0,0,0,284.56,49a5.08,5.08,0,0,0-1.29-3.57A9.07,9.07,0,0,0,280,43.21a55.33,55.33,0,0,0-5.29-1.81,53.93,53.93,0,0,1-6.67-2.4,11.5,11.5,0,0,1-4.36-3.45,9.51,9.51,0,0,1-1.78-6,9.65,9.65,0,0,1,1.81-5.79,11.46,11.46,0,0,1,5.09-3.86,19.92,19.92,0,0,1,7.61-1.34,24.59,24.59,0,0,1,7.22,1.08,24.27,24.27,0,0,1,6.29,2.9l-2.34,5A23.58,23.58,0,0,0,281.66,24.81Z"/><path class="cls-1" d="M294.44,19h32v5.15H313.22v35.8h-5.62V24.14H294.44Z"/><path class="cls-1" d="M332.88,19h28.43v5.09H338.5V36.72h20.42v5.09H338.5v13H362v5.09H332.88Z"/><path class="cls-1" d="M398.55,21.65A19.6,19.6,0,0,1,406.12,29a20.29,20.29,0,0,1,2.75,10.47,20.12,20.12,0,0,1-2.78,10.47,19.74,19.74,0,0,1-7.63,7.34,22.26,22.26,0,0,1-10.88,2.66h-16.5V19h16.67A22,22,0,0,1,398.55,21.65Zm-2.92,31.21a14.6,14.6,0,0,0,5.5-5.5,15.45,15.45,0,0,0,2-7.84,15.39,15.39,0,0,0-2-7.9,14.91,14.91,0,0,0-5.59-5.53,15.6,15.6,0,0,0-7.87-2H376.7V54.85h11.17A15.35,15.35,0,0,0,395.62,52.86Z"/><path class="cls-1" d="M452,29.78a10.57,10.57,0,0,0-5.18-1.49,9.12,9.12,0,0,0-5,1.4,9.85,9.85,0,0,0-3.51,3.89,12.77,12.77,0,0,0,0,11.17,10,10,0,0,0,3.51,3.92,9,9,0,0,0,5,1.43,11.54,11.54,0,0,0,5-1.29,16.31,16.31,0,0,0,4.77-3.51l7,7.49a24.91,24.91,0,0,1-8,5.79A22.39,22.39,0,0,1,435.18,58a20.12,20.12,0,0,1-7.75-7.69,21.77,21.77,0,0,1-2.81-11,20.73,20.73,0,0,1,2.87-10.79,20.35,20.35,0,0,1,7.9-7.58,23.58,23.58,0,0,1,20.53-.76,22.57,22.57,0,0,1,7.72,5.32l-7,8.37A14.68,14.68,0,0,0,452,29.78Z"/><path class="cls-1" d="M469.19,18.93h12.17v41H469.19Z"/><path class="cls-1" d="M146.47,91.6h11.74V93h-5.11v14.09h-1.53V93h-5.11Z"/><path class="cls-1" d="M163.46,91.62H165V98.7h9.66V91.62h1.53v15.46h-1.53v-7H165v7h-1.53Z"/><path class="cls-1" d="M183.6,91.62H194V93h-8.82v5.53H193v1.37h-7.9v5.82h9.11v1.37H183.6Z"/><path class="cls-1" d="M220.4,91.62h1.5v15.46h-1.61L210.72,94v13.09h-1.53V91.62h1.61l9.6,13.09Z"/><path class="cls-1" d="M235.86,93.22a7.8,7.8,0,0,0-2.12-.32,4.6,4.6,0,0,0-2.55.63,2,2,0,0,0-1,1.71,2.24,2.24,0,0,0,.53,1.55,3.74,3.74,0,0,0,1.3.94,20.66,20.66,0,0,0,2.12.76,18.37,18.37,0,0,1,2.53.92,4.48,4.48,0,0,1,1.64,1.32,4,4,0,0,1,0,4.47,4.45,4.45,0,0,1-2,1.47,7.55,7.55,0,0,1-2.9.52,8.1,8.1,0,0,1-3.15-.64,8.49,8.49,0,0,1-2.64-1.7l.71-1.26a7.61,7.61,0,0,0,2.41,1.59,6.92,6.92,0,0,0,2.7.58,4.86,4.86,0,0,0,2.81-.72,2.24,2.24,0,0,0,1-1.94,2.36,2.36,0,0,0-.53-1.59,3.51,3.51,0,0,0-1.3-1q-.77-.33-2.17-.77a22.14,22.14,0,0,1-2.52-.92,4.25,4.25,0,0,1-1.61-1.28,3.52,3.52,0,0,1-.66-2.22,3.34,3.34,0,0,1,.66-2.06,4.19,4.19,0,0,1,1.86-1.36,7.44,7.44,0,0,1,2.76-.48,9.32,9.32,0,0,1,4.78,1.37l-.66,1.3A8,8,0,0,0,235.86,93.22Z"/><path class="cls-1" d="M245.37,91.62h9.69V93H246.9v5.95h7.28v1.37H246.9v6.77h-1.53Z"/><path class="cls-1" d="M278.06,93.35a6.6,6.6,0,0,0-5.8.35,6.41,6.41,0,0,0-2.37,2.35,6.51,6.51,0,0,0,0,6.51,6.53,6.53,0,0,0,2.37,2.36,6.38,6.38,0,0,0,3.28.87,6.56,6.56,0,0,0,2.5-.5,7.13,7.13,0,0,0,2.17-1.38l.93,1a8.91,8.91,0,0,1-2.63,1.68,7.79,7.79,0,0,1-3,.62,8,8,0,0,1-6.93-3.94,7.63,7.63,0,0,1-1.07-4,7.46,7.46,0,0,1,1.08-3.94,8.1,8.1,0,0,1,7-3.89,8.24,8.24,0,0,1,5.6,2.21l-.91,1.06A6.81,6.81,0,0,0,278.06,93.35Z"/><path class="cls-1" d="M298.22,91.62l-5.95,10v5.51h-1.53v-5.51l-6-10h1.59l5.22,8.32,5.11-8.32Z"/><path class="cls-1" d="M313.47,92.63a3.41,3.41,0,0,1,1.32,2.84,3.5,3.5,0,0,1-.76,2.3A3.62,3.62,0,0,1,311.89,99a4.19,4.19,0,0,1,2.65,1.26,3.75,3.75,0,0,1,1,2.63A3.64,3.64,0,0,1,314,106a6.75,6.75,0,0,1-4.11,1.11h-6.55V91.6h6.48A5.77,5.77,0,0,1,313.47,92.63Zm-1.16,5.09a2.46,2.46,0,0,0,.91-2,2.38,2.38,0,0,0-.91-2,4,4,0,0,0-2.54-.69h-4.89v5.44h4.89A4,4,0,0,0,312.31,97.71Zm.54,7.21a2.55,2.55,0,0,0,1.09-2.2,2.49,2.49,0,0,0-1.11-2.17,5.3,5.3,0,0,0-3.07-.77h-4.89v5.93h4.89A5.23,5.23,0,0,0,312.85,104.92Z"/><path class="cls-1" d="M321.82,91.62h10.35V93h-8.82v5.53h7.9v1.37h-7.9v5.82h9.11v1.37H321.82Z"/><path class="cls-1" d="M349,107.08l-3.34-5q-.71,0-1.08,0h-4.25v5h-1.53V91.62h5.77A6.74,6.74,0,0,1,349,93a4.69,4.69,0,0,1,1.58,3.79,5.33,5.33,0,0,1-.93,3.21,4.85,4.85,0,0,1-2.65,1.79l3.72,5.33Zm-4.42-6.37a5.14,5.14,0,0,0,3.41-1,3.59,3.59,0,0,0,1.2-2.91,3.44,3.44,0,0,0-1.2-2.83,5.27,5.27,0,0,0-3.41-1h-4.25v7.72Z"/><path class="cls-1" d="M363.82,93.22a7.8,7.8,0,0,0-2.12-.32,4.6,4.6,0,0,0-2.55.63,2,2,0,0,0-1,1.71,2.24,2.24,0,0,0,.53,1.55,3.74,3.74,0,0,0,1.3.94,20.66,20.66,0,0,0,2.12.76,18.37,18.37,0,0,1,2.53.92,4.48,4.48,0,0,1,1.64,1.32,4,4,0,0,1,0,4.47,4.45,4.45,0,0,1-2,1.47,7.55,7.55,0,0,1-2.9.52,8.1,8.1,0,0,1-3.15-.64,8.49,8.49,0,0,1-2.64-1.7l.71-1.26a7.61,7.61,0,0,0,2.41,1.59,6.92,6.92,0,0,0,2.7.58,4.86,4.86,0,0,0,2.81-.72,2.24,2.24,0,0,0,1-1.94,2.36,2.36,0,0,0-.53-1.59,3.51,3.51,0,0,0-1.3-1q-.77-.33-2.17-.77a22.14,22.14,0,0,1-2.52-.92,4.25,4.25,0,0,1-1.61-1.28,3.52,3.52,0,0,1-.66-2.22,3.34,3.34,0,0,1,.66-2.06A4.19,4.19,0,0,1,359,91.94a7.44,7.44,0,0,1,2.76-.48,9.32,9.32,0,0,1,4.78,1.37l-.66,1.3A8,8,0,0,0,363.82,93.22Z"/><path class="cls-1" d="M373.33,91.62h10.35V93h-8.82v5.53h7.9v1.37h-7.9v5.82H384v1.37H373.33Z"/><path class="cls-1" d="M399.35,93.35a6.6,6.6,0,0,0-5.8.35,6.41,6.41,0,0,0-2.37,2.35,6.51,6.51,0,0,0,0,6.51,6.53,6.53,0,0,0,2.37,2.36,6.38,6.38,0,0,0,3.28.87,6.56,6.56,0,0,0,2.5-.5,7.13,7.13,0,0,0,2.17-1.38l.93,1a8.91,8.91,0,0,1-2.63,1.68,7.79,7.79,0,0,1-3,.62,8,8,0,0,1-6.93-3.94,7.63,7.63,0,0,1-1.07-4,7.46,7.46,0,0,1,1.08-3.94,8.1,8.1,0,0,1,7-3.89,8.24,8.24,0,0,1,5.6,2.21l-.91,1.06A6.81,6.81,0,0,0,399.35,93.35Z"/><path class="cls-1" d="M410.8,104.51a5.51,5.51,0,0,0,7.18,0,5.12,5.12,0,0,0,1.28-3.72V91.6h1.53v9.2a6.41,6.41,0,1,1-12.8,0V91.6h1.53v9.2A5.1,5.1,0,0,0,410.8,104.51Z"/><path class="cls-1" d="M438.06,107.08l-3.34-5q-.71,0-1.08,0h-4.25v5h-1.53V91.62h5.77A6.74,6.74,0,0,1,438.11,93a4.69,4.69,0,0,1,1.58,3.79,5.33,5.33,0,0,1-.93,3.21,4.85,4.85,0,0,1-2.65,1.79l3.72,5.33Zm-4.42-6.37a5.14,5.14,0,0,0,3.41-1,3.59,3.59,0,0,0,1.2-2.91A3.44,3.44,0,0,0,437,94a5.27,5.27,0,0,0-3.41-1h-4.25v7.72Z"/><path class="cls-1" d="M446.41,91.62h1.53v15.46h-1.53Z"/><path class="cls-1" d="M453.18,91.6h11.74V93h-5.11v14.09h-1.53V93h-5.11Z"/><path class="cls-1" d="M481.36,91.62l-5.95,10v5.51h-1.53v-5.51l-6-10h1.59l5.22,8.32,5.11-8.32Z"/><path class="cls-1" d="M159.11,118.76a6.33,6.33,0,0,0-5.9.19,6,6,0,0,0-2.26,2.28,6.55,6.55,0,0,0,0,6.36,6.09,6.09,0,0,0,2.26,2.29,6.17,6.17,0,0,0,3.17.84,6.66,6.66,0,0,0,2.68-.59,7.68,7.68,0,0,0,2.38-1.62l2.1,2.34a11,11,0,0,1-3.41,2.36,9.61,9.61,0,0,1-3.94.87,9.75,9.75,0,0,1-4.93-1.28,9.37,9.37,0,0,1-3.51-3.48,9.48,9.48,0,0,1-1.28-4.86,9.28,9.28,0,0,1,1.3-4.85,9.38,9.38,0,0,1,3.56-3.44,10.32,10.32,0,0,1,8.91-.45,9.62,9.62,0,0,1,3.28,2.21l-2.08,2.61A7,7,0,0,0,159.11,118.76Z"/><path class="cls-1" d="M166.55,115.16h13.66v3.12H170.12v4.61h9.05V126h-9.05v4.69h10.41v3.12h-14Z"/><path class="cls-1" d="M197.23,115.16h3.46V133.8h-3.38L187.72,121V133.8h-3.49V115.16h3.38L197.23,128Z"/><path class="cls-1" d="M203.27,115.16h15.21v3.17h-5.81V133.8h-3.59V118.33h-5.8Z"/><path class="cls-1" d="M221.09,115.16h13.66v3.12H224.66v4.61h9.05V126h-9.05v4.69h10.41v3.12h-14Z"/><path class="cls-1" d="M250.44,133.8l-3.22-5.51a5.86,5.86,0,0,1-.67,0h-4.21v5.49h-3.57V115.16h7.78a8.38,8.38,0,0,1,5.59,1.68,5.89,5.89,0,0,1,2,4.74,7,7,0,0,1-.95,3.73,5.78,5.78,0,0,1-2.76,2.32l4.1,6.18Zm-8.1-8.63h4.21a4.75,4.75,0,0,0,3.09-.88,3.19,3.19,0,0,0,1.07-2.61,3.08,3.08,0,0,0-1.07-2.56,4.85,4.85,0,0,0-3.09-.85h-4.21Z"/><path class="cls-1" d="M278.22,116.17a9.54,9.54,0,0,1,3.58,13.14,9.48,9.48,0,0,1-3.58,3.48,10.6,10.6,0,0,1-10.09,0,9.49,9.49,0,0,1-3.58-3.48,9.44,9.44,0,0,1,3.58-13.14,10.8,10.8,0,0,1,10.09,0ZM270.06,119a6.38,6.38,0,0,0-2.3,8.72,6.43,6.43,0,0,0,2.32,2.32,6.12,6.12,0,0,0,3.16.85,6,6,0,0,0,3.12-.85,6.26,6.26,0,0,0,2.28-2.32,6.37,6.37,0,0,0,.84-3.22,6.3,6.3,0,0,0-.84-3.21,6.19,6.19,0,0,0-2.28-2.29,6.07,6.07,0,0,0-3.12-.84A6.26,6.26,0,0,0,270.06,119Z"/><path class="cls-1" d="M286.33,115.16H299.2l0,3.12H289.9v5h8.44v3.12H289.9v7.38h-3.57Z"/><path class="cls-1" d="M308.54,115.16H322.2v3.12H312.11v4.61h9.05V126h-9.05v4.69h10.41v3.12h-14Z"/><path class="cls-1" d="M324.71,115.16h4.18l4.29,6.12,4.29-6.12h4.23l-6.26,8.92,6.79,9.72h-4.29l-4.77-6.66-4.71,6.66h-4.18l6.71-9.56Z"/><path class="cls-1" d="M355.8,118.76a6.33,6.33,0,0,0-5.9.19,6,6,0,0,0-2.26,2.28,6.55,6.55,0,0,0,0,6.36,6.09,6.09,0,0,0,2.26,2.29,6.17,6.17,0,0,0,3.17.84,6.66,6.66,0,0,0,2.68-.59,7.68,7.68,0,0,0,2.38-1.62l2.1,2.34a11,11,0,0,1-3.41,2.36,9.61,9.61,0,0,1-3.94.87,9.75,9.75,0,0,1-4.93-1.28,9.37,9.37,0,0,1-3.51-3.48,9.48,9.48,0,0,1-1.28-4.86,9.28,9.28,0,0,1,1.3-4.85,9.38,9.38,0,0,1,3.56-3.44,10.32,10.32,0,0,1,8.91-.45,9.62,9.62,0,0,1,3.28,2.21l-2.08,2.61A7,7,0,0,0,355.8,118.76Z"/><path class="cls-1" d="M363.24,115.16H376.9v3.12H366.81v4.61h9.05V126h-9.05v4.69h10.41v3.12h-14Z"/><path class="cls-1" d="M380.92,115.16h3.57v15.42h8v3.22H380.92Z"/><path class="cls-1" d="M395.41,115.16H399v15.42h8v3.22H395.41Z"/><path class="cls-1" d="M409.89,115.16h13.66v3.12H413.46v4.61h9.05V126h-9.05v4.69h10.41v3.12h-14Z"/><path class="cls-1" d="M440.57,115.16H444V133.8h-3.38L431.06,121V133.8h-3.49V115.16H431L440.57,128Z"/><path class="cls-1" d="M459.87,118.76a6.33,6.33,0,0,0-5.9.19,6,6,0,0,0-2.26,2.28,6.55,6.55,0,0,0,0,6.36,6.09,6.09,0,0,0,2.26,2.29,6.17,6.17,0,0,0,3.17.84,6.66,6.66,0,0,0,2.68-.59,7.68,7.68,0,0,0,2.38-1.62l2.1,2.34a11,11,0,0,1-3.41,2.36,9.61,9.61,0,0,1-3.94.87,9.75,9.75,0,0,1-4.93-1.28,9.37,9.37,0,0,1-3.51-3.48,9.48,9.48,0,0,1-1.28-4.86,9.28,9.28,0,0,1,1.3-4.85,9.38,9.38,0,0,1,3.56-3.44,10.32,10.32,0,0,1,8.91-.45,9.62,9.62,0,0,1,3.28,2.21l-2.08,2.61A7,7,0,0,0,459.87,118.76Z"/><path class="cls-1" d="M467.31,115.16H481v3.12H470.88v4.61h9.05V126h-9.05v4.69h10.41v3.12h-14Z"/><rect class="cls-1" x="138.36" y="72.73" width="351.07" height="6.01"/><path class="cls-1" d="M129.77,33.39,110.49,0H71.93L54.39,30.38H19.28L0,63.77v0L19.28,97.19H54.37L71.93,127.6h38.56l19.28-33.39L112.21,63.8ZM75.39,6H107l15.82,27.39L107,60.79H75.4L59.58,33.39ZM22.74,36.41H54.37L70.18,63.79,54.37,91.16H22.74L6.94,63.79Zm100.1,57.8L107,121.6H75.39L59.58,94.21,75.39,66.82H107Z"/><rect class="cls-1" x="25.96" y="42.5" width="25.2" height="6.03"/><rect class="cls-1" x="25.96" y="18.35" width="25.2" height="6.03"/><rect class="cls-1" x="78.57" y="72.87" width="25.2" height="6.03"/><rect class="cls-1" x="78.57" y="133.63" width="25.2" height="6.03"/><rect class="cls-1" x="51.4" y="102.76" width="6.03" height="25.2" transform="translate(-50.39 42.66) rotate(-30)"/><rect class="cls-1" x="94.74" y="39.17" width="25.2" height="6.03" transform="translate(17.14 114.05) rotate(-60)"/><rect class="cls-1" x="63.08" y="20.89" width="25.2" height="6.03" transform="translate(17.14 77.49) rotate(-60)"/></g></g></svg>